<svg width="64" height="64" viewBox="0 0 64 64" fill="none" xmlns="http://www.w3.org/2000/svg">
<path d="M53.3333 24.0001H29.3333C26.3878 24.0001 24 26.3879 24 29.3334V53.3334C24 56.2789 26.3878 58.6667 29.3333 58.6667H53.3333C56.2789 58.6667 58.6667 56.2789 58.6667 53.3334V29.3334C58.6667 26.3879 56.2789 24.0001 53.3333 24.0001Z" stroke="#063A3B" stroke-width="5.33333" stroke-linecap="round" stroke-linejoin="round"/>
<path d="M13.3334 40H10.6667C9.25222 40 7.89566 39.4381 6.89547 38.4379C5.89528 37.4377 5.33337 36.0812 5.33337 34.6667V10.6667C5.33337 9.25222 5.89528 7.89566 6.89547 6.89547C7.89566 5.89528 9.25222 5.33337 10.6667 5.33337H34.6667C36.0812 5.33337 37.4377 5.89528 38.4379 6.89547C39.4381 7.89566 40 9.25222 40 10.6667V13.3334" stroke="#063A3B" stroke-width="5.33333" stroke-linecap="round" stroke-linejoin="round"/>
</svg>
